<svg aria-hidden="true" style="position:absolute;width:0;height:0" xmlns="http://www.w3.org/2000/svg" overflow="hidden"><defs><symbol id="icon-Preci-logo" viewBox="0 0 56 32"><path fill="var(--color1, #000)" d="M.779 31.755H0v-17.08h.779v3.466c.335-1.072.896-1.959 1.683-2.662.804-.703 1.767-1.055 2.889-1.055 1.021 0 1.942.243 2.763.728.837.486 1.499 1.181 1.984 2.085s.728 1.976.728 3.215c0 1.239-.243 2.311-.728 3.215s-1.147 1.599-1.984 2.085c-.821.486-1.742.728-2.763.728-1.122 0-2.085-.352-2.889-1.055-.787-.703-1.348-1.591-1.683-2.662v8.992zm9.243-11.303c0-1.088-.218-2.026-.653-2.813-.419-.787-.996-1.39-1.733-1.809a4.573 4.573 0 00-2.411-.653c-.821 0-1.566.243-2.235.728s-1.206 1.13-1.608 1.934c-.402.787-.603 1.658-.603 2.612 0 .938.201 1.808.603 2.612s.938 1.448 1.608 1.934c.67.486 1.415.728 2.235.728.888 0 1.691-.209 2.411-.628a4.57 4.57 0 001.733-1.834c.435-.787.653-1.725.653-2.813zM14.899 14.675v2.085c.251-.72.611-1.289 1.08-1.708s1.038-.628 1.708-.628c.67 0 1.256.209 1.758.628l-.452.628c-.469-.335-.954-.502-1.457-.502-.62 0-1.122.184-1.507.553s-.67.854-.854 1.457a6.867 6.867 0 00-.276 2.009v7.033h-.779V14.676h.779zM25.86 26.48c-1.005 0-1.901-.26-2.688-.779-.787-.536-1.415-1.264-1.884-2.185-.452-.921-.678-1.959-.678-3.115s.234-2.177.703-3.064c.469-.904 1.114-1.616 1.934-2.135s1.75-.779 2.788-.779c.988 0 1.867.243 2.637.728a5.13 5.13 0 011.859 2.009c.452.837.678 1.783.678 2.838v.327c0 .117-.017.226-.05.326h-9.746c.034.988.251 1.867.653 2.637.402.754.929 1.348 1.582 1.783.67.435 1.432.653 2.286.653.954 0 1.783-.201 2.487-.603.703-.419 1.356-1.088 1.959-2.009l.628.427c-.67 1.021-1.423 1.767-2.261 2.235-.821.469-1.783.703-2.889.703zm.176-11.353c-.854 0-1.624.209-2.311.628-.67.402-1.206.963-1.608 1.683s-.628 1.557-.678 2.512h8.942v-.201c0-.871-.193-1.649-.578-2.336a4.37 4.37 0 00-1.557-1.658c-.653-.419-1.39-.628-2.21-.628zM34.154 20.452c0 1.021.226 1.934.678 2.738a5.003 5.003 0 001.834 1.859 5.152 5.152 0 002.612.678c.938 0 1.758-.193 2.462-.578s1.189-.762 1.457-1.13v1.005c-.318.368-.829.703-1.532 1.005s-1.499.452-2.386.452c-1.105 0-2.11-.26-3.014-.779a5.734 5.734 0 01-2.11-2.135c-.519-.921-.779-1.959-.779-3.115 0-1.172.26-2.21.779-3.115s1.222-1.616 2.11-2.135c.904-.519 1.909-.779 3.014-.779.888 0 1.683.159 2.386.477.703.301 1.214.628 1.532.98v1.005c-.268-.385-.754-.762-1.457-1.13-.703-.385-1.524-.578-2.462-.578-.954 0-1.825.226-2.612.678a4.963 4.963 0 00-1.834 1.884c-.452.787-.678 1.691-.678 2.713zM47.107 14.675h.779v11.554h-.779V14.675z"/><path fill="var(--color2, #efd1d1)" d="M48.188 13.033c.885.021 3.077-.804 4.758-4.275.31-.984.818-3.263.369-4.507-.56-1.554-4.06-2.526-6.082-2.287s-3.48 2.152-4.097 3.103c-.616.95-.606 3.834.563 6.068.935 1.788 3.382 2.011 4.489 1.899z"/><path fill="var(--color1, #000)" d="M48.536 10.211c-.421.437-1.1.464-1.518.062s-.416-1.083.005-1.519c.421-.437 1.1-.464 1.518-.062s.416 1.083-.005 1.519z"/></symbol><symbol id="icon-Preci-logo-eng" viewBox="0 0 53 32"><path fill="var(--color1, #000)" d="M1.088 20.941H.575V9.678h.513v2.286a3.839 3.839 0 011.11-1.756c.53-.464 1.165-.696 1.905-.696.674 0 1.281.16 1.822.48.552.32.988.778 1.308 1.375s.48 1.303.48 2.12c0 .817-.16 1.524-.48 2.12s-.756 1.055-1.309 1.375a3.51 3.51 0 01-1.822.48c-.74 0-1.375-.232-1.905-.696a3.839 3.839 0 01-1.11-1.756v5.93zm6.095-7.454c0-.718-.144-1.336-.431-1.855a2.905 2.905 0 00-1.143-1.193 3.015 3.015 0 00-1.59-.431c-.541 0-1.032.16-1.474.48s-.795.745-1.06 1.275a3.733 3.733 0 00-.398 1.723c0 .618.133 1.193.398 1.723s.618.955 1.06 1.275c.442.32.933.48 1.474.48.585 0 1.115-.138 1.59-.414.486-.287.867-.69 1.143-1.209.287-.519.431-1.137.431-1.855zM10.399 9.677v1.375c.166-.475.403-.85.712-1.126s.685-.414 1.126-.414c.442 0 .828.138 1.159.414l-.298.414c-.309-.221-.629-.331-.961-.331-.409 0-.74.121-.994.364s-.442.563-.563.961a4.54 4.54 0 00-.182 1.325v4.638h-.513V9.678h.513zM17.627 17.462a3.146 3.146 0 01-1.772-.513 3.772 3.772 0 01-1.242-1.441c-.298-.607-.447-1.292-.447-2.054s.155-1.436.464-2.021c.309-.596.734-1.066 1.275-1.408s1.154-.513 1.839-.513c.651 0 1.231.16 1.739.48.519.32.928.762 1.226 1.325.298.552.447 1.176.447 1.872v.215a.678.678 0 01-.033.215h-6.427c.022.652.166 1.231.431 1.739.265.497.613.889 1.043 1.176.442.287.944.431 1.507.431.629 0 1.176-.133 1.64-.398.464-.276.894-.718 1.292-1.325l.414.282c-.442.674-.939 1.165-1.491 1.474-.541.309-1.176.464-1.905.464zm.116-7.487a2.87 2.87 0 00-1.524.414c-.442.265-.795.635-1.06 1.11s-.414 1.027-.447 1.656h5.897v-.133a3.09 3.09 0 00-.381-1.54 2.876 2.876 0 00-1.027-1.093 2.646 2.646 0 00-1.458-.414zM23.097 13.487c0 .674.149 1.275.447 1.805a3.3 3.3 0 001.209 1.226 3.398 3.398 0 001.723.447c.618 0 1.159-.127 1.623-.381s.784-.502.961-.745v.663c-.21.243-.547.464-1.01.663s-.988.298-1.574.298a3.926 3.926 0 01-1.988-.513 3.782 3.782 0 01-1.391-1.408c-.342-.607-.513-1.292-.513-2.054 0-.773.171-1.458.513-2.054s.806-1.066 1.391-1.408a3.923 3.923 0 011.988-.513c.585 0 1.11.105 1.574.315.464.199.8.414 1.01.646v.663c-.177-.254-.497-.502-.961-.745-.464-.254-1.005-.381-1.623-.381a3.4 3.4 0 00-1.723.447 3.265 3.265 0 00-1.209 1.242c-.298.519-.447 1.115-.447 1.789zM31.639 9.677h.513v7.619h-.513V9.677z"/><path fill="var(--color2, #efd1d1)" d="M32.352 8.594c.584.014 2.029-.53 3.138-2.819.204-.649.539-2.152.243-2.972-.369-1.025-2.677-1.666-4.011-1.508s-2.295 1.419-2.702 2.046c-.406.627-.399 2.528.371 4.002.616 1.179 2.23 1.326 2.96 1.252z"/><path fill="var(--color1, #000)" d="M32.581 6.733c-.277.288-.726.306-1.001.041s-.274-.714.003-1.002c.277-.288.726-.306 1.001-.041s.274.714-.003 1.002zM.624 31.105H.445v-3.927h.179v.797a1.34 1.34 0 01.387-.612.973.973 0 01.664-.243c.235 0 .447.056.635.167.192.112.345.271.456.479s.167.454.167.739-.056.531-.167.739-.264.368-.456.479a1.22 1.22 0 01-.635.167.973.973 0 01-.664-.243 1.34 1.34 0 01-.387-.612v2.067zm2.125-2.599c0-.25-.05-.466-.15-.647a1.012 1.012 0 00-.398-.416c-.166-.1-.35-.15-.554-.15-.189 0-.36.056-.514.167s-.277.26-.37.445a1.307 1.307 0 00-.139.601c0 .216.046.416.139.601s.216.333.37.445a.852.852 0 00.514.167c.204 0 .389-.048.554-.144.169-.1.302-.241.398-.422.1-.181.15-.396.15-.647zm1.257-1.328v.479c.058-.166.141-.296.248-.393s.239-.144.393-.144c.154 0 .289.048.404.144l-.104.144a.57.57 0 00-.335-.116c-.142 0-.258.042-.346.127s-.154.196-.196.335a1.592 1.592 0 00-.064.462v1.617h-.179v-2.656h.179zm2.656 2.714a1.1 1.1 0 01-.618-.179 1.32 1.32 0 01-.433-.502c-.104-.212-.156-.45-.156-.716s.054-.5.162-.704c.108-.208.256-.372.445-.491s.402-.179.641-.179c.227 0 .429.056.606.167.181.112.323.266.427.462.104.192.156.41.156.652v.075a.227.227 0 01-.012.075H5.64c.008.227.058.429.15.606.092.173.214.31.364.41.154.1.329.15.525.15.219 0 .41-.046.572-.139.162-.096.312-.25.45-.462l.144.098a1.53 1.53 0 01-.52.514c-.189.108-.41.162-.664.162zm.041-2.61c-.196 0-.373.048-.531.144-.154.092-.277.221-.37.387s-.144.358-.156.577h2.056v-.046c0-.2-.044-.379-.133-.537a1.003 1.003 0 00-.358-.381.924.924 0 00-.508-.144zm2.002 1.224c0 .235.052.445.156.629a1.145 1.145 0 001.023.583c.216 0 .404-.044.566-.133s.273-.175.335-.26v.231c-.073.085-.191.162-.352.231s-.345.104-.549.104a1.314 1.314 0 01-1.178-.67 1.436 1.436 0 01-.179-.716c0-.269.06-.508.179-.716a1.314 1.314 0 011.178-.67c.204 0 .387.037.549.11a.998.998 0 01.352.225v.231c-.062-.089-.173-.175-.335-.26a1.155 1.155 0 00-.566-.133 1.14 1.14 0 00-1.023.589 1.23 1.23 0 00-.156.624zm3.068-2.61c0-.038.013-.069.04-.092a.134.134 0 01.098-.04c.042 0 .075.013.098.04.023.023.035.054.035.092s-.012.071-.035.098c-.023.027-.056.04-.098.04-.039 0-.071-.013-.098-.04s-.04-.06-.04-.098zm.046 1.282h.179v2.656h-.179v-2.656zm1.125 1.328c0-.269.06-.508.179-.716a1.314 1.314 0 011.172-.67 1.314 1.314 0 011.178.67c.119.208.179.447.179.716 0 .266-.06.504-.179.716a1.314 1.314 0 01-1.178.67 1.314 1.314 0 01-1.172-.67 1.436 1.436 0 01-.179-.716zm.185 0c0 .235.052.445.156.629.104.181.243.323.416.427.177.104.375.156.595.156s.418-.052.595-.156c.181-.104.323-.246.427-.427.104-.185.156-.395.156-.629s-.052-.443-.156-.624a1.152 1.152 0 00-1.022-.589c-.22 0-.418.052-.595.156a1.155 1.155 0 00-.416.433 1.23 1.23 0 00-.156.624zm3.602.41c0 .246.052.443.156.589.104.142.273.214.508.214a.76.76 0 00.433-.127.93.93 0 00.428-.797v-1.617h.179v2.656h-.179v-.658a1.002 1.002 0 01-.335.525.868.868 0 01-.56.191c-.277 0-.481-.087-.612-.26s-.196-.406-.196-.699v-1.755h.179v1.738zm2.743.203a.924.924 0 00.248.427c.127.119.31.179.549.179a.679.679 0 00.45-.144.528.528 0 00.179-.427.437.437 0 00-.208-.393 1.8 1.8 0 00-.479-.225c-.135-.042-.26-.09-.375-.144s-.208-.129-.277-.225a.65.65 0 01-.104-.387c0-.142.035-.262.104-.358s.16-.167.271-.214a.924.924 0 01.37-.075c.239 0 .427.056.566.167s.239.241.3.387l-.15.087a.936.936 0 00-.26-.335c-.112-.096-.269-.144-.474-.144-.15 0-.279.04-.387.121-.108.077-.162.194-.162.352 0 .131.029.235.087.312a.652.652 0 00.243.185c.104.042.218.083.341.121.135.042.26.094.375.156.119.062.216.14.289.237a.56.56 0 01.11.358.717.717 0 01-.225.554c-.15.135-.346.202-.589.202-.189 0-.35-.033-.485-.098a.905.905 0 01-.312-.26.91.91 0 01-.144-.341l.15-.075zm4.522-3.223c0-.038.013-.069.04-.092a.134.134 0 01.098-.04c.042 0 .075.013.098.04.023.023.035.054.035.092s-.012.071-.035.098c-.023.027-.056.04-.098.04-.038 0-.071-.013-.098-.04s-.04-.06-.04-.098zm.046 1.282h.179v2.656h-.179v-2.656zm3.06.878c0-.231-.052-.416-.156-.554-.1-.139-.269-.208-.508-.208a.788.788 0 00-.439.127.95.95 0 00-.422.797v1.617h-.179v-2.656h.179v.658a1.02 1.02 0 01.335-.52.863.863 0 01.56-.196c.277 0 .481.085.612.254.131.166.196.387.196.664v1.796h-.179v-1.779zm3.377 3.049H30.3v-3.927h.179v.797a1.34 1.34 0 01.387-.612.973.973 0 01.664-.243c.235 0 .447.056.635.167.192.112.345.271.456.479s.167.454.167.739-.056.531-.167.739-.264.368-.456.479a1.22 1.22 0 01-.635.167.973.973 0 01-.664-.243 1.34 1.34 0 01-.387-.612v2.067zm2.125-2.599c0-.25-.05-.466-.15-.647a1.012 1.012 0 00-.398-.416c-.166-.1-.35-.15-.554-.15-.189 0-.36.056-.514.167s-.277.26-.37.445a1.307 1.307 0 00-.139.601c0 .216.046.416.139.601s.216.333.37.445a.852.852 0 00.514.167c.204 0 .389-.048.554-.144.169-.1.302-.241.398-.422.1-.181.15-.396.15-.647zm1.257-1.328v.479c.058-.166.141-.296.248-.393s.239-.144.393-.144c.154 0 .289.048.404.144l-.104.144a.57.57 0 00-.335-.116c-.142 0-.258.042-.346.127s-.154.196-.196.335a1.592 1.592 0 00-.064.462v1.617h-.179v-2.656h.179zm2.657 2.714a1.1 1.1 0 01-.618-.179 1.32 1.32 0 01-.433-.502c-.104-.212-.156-.45-.156-.716s.054-.5.162-.704c.108-.208.256-.372.445-.491s.402-.179.641-.179c.227 0 .429.056.606.167.181.112.323.266.427.462.104.192.156.41.156.652v.075a.227.227 0 01-.012.075h-2.24c.008.227.058.429.15.606.092.173.214.31.364.41.154.1.329.15.525.15.219 0 .41-.046.572-.139.162-.096.312-.25.45-.462l.144.098a1.53 1.53 0 01-.52.514c-.189.108-.41.162-.664.162zm.04-2.61c-.196 0-.373.048-.531.144-.154.092-.277.221-.37.387s-.144.358-.156.577h2.056v-.046c0-.2-.044-.379-.133-.537a1.003 1.003 0 00-.358-.381.924.924 0 00-.508-.144zm2.002 1.224c0 .235.052.445.156.629a1.145 1.145 0 001.023.583c.216 0 .404-.044.566-.133s.273-.175.335-.26v.231c-.073.085-.191.162-.352.231s-.345.104-.549.104a1.314 1.314 0 01-1.178-.67 1.436 1.436 0 01-.179-.716c0-.269.06-.508.179-.716a1.314 1.314 0 011.178-.67c.204 0 .387.037.549.11a.998.998 0 01.352.225v.231c-.062-.089-.173-.175-.335-.26a1.155 1.155 0 00-.566-.133 1.14 1.14 0 00-1.023.589 1.23 1.23 0 00-.156.624zm3.068-2.61c0-.038.013-.069.04-.092a.134.134 0 01.098-.04c.042 0 .075.013.098.04.023.023.035.054.035.092s-.012.071-.035.098c-.023.027-.056.04-.098.04-.038 0-.071-.013-.098-.04s-.04-.06-.04-.098zm.047 1.282h.179v2.656h-.179v-2.656zm1.263 1.941a.924.924 0 00.248.427c.127.119.31.179.549.179a.679.679 0 00.45-.144.528.528 0 00.179-.427.437.437 0 00-.208-.393 1.8 1.8 0 00-.479-.225c-.135-.042-.26-.09-.375-.144s-.208-.129-.277-.225a.65.65 0 01-.104-.387c0-.142.035-.262.104-.358s.16-.167.271-.214a.92.92 0 01.37-.075c.239 0 .427.056.566.167s.239.241.3.387l-.15.087a.936.936 0 00-.26-.335c-.112-.096-.269-.144-.474-.144-.15 0-.279.04-.387.121-.108.077-.162.194-.162.352 0 .131.029.235.087.312a.652.652 0 00.243.185c.104.042.218.083.341.121.135.042.26.094.375.156.119.062.216.14.289.237a.56.56 0 01.11.358.717.717 0 01-.225.554c-.15.135-.346.202-.589.202-.189 0-.35-.033-.485-.098a.905.905 0 01-.312-.26.91.91 0 01-.144-.341l.15-.075zm2.606-3.223c0-.038.013-.069.04-.092a.134.134 0 01.098-.04c.042 0 .075.013.098.04.023.023.035.054.035.092s-.012.071-.035.098c-.023.027-.056.04-.098.04-.038 0-.071-.013-.098-.04s-.04-.06-.04-.098zm.046 1.282h.179v2.656h-.179v-2.656zm1.126 1.328c0-.269.06-.508.179-.716a1.314 1.314 0 011.172-.67 1.314 1.314 0 011.178.67c.119.208.179.447.179.716 0 .266-.06.504-.179.716a1.314 1.314 0 01-1.178.67 1.314 1.314 0 01-1.172-.67 1.436 1.436 0 01-.179-.716zm.184 0c0 .235.052.445.156.629.104.181.243.323.416.427.177.104.375.156.595.156s.418-.052.595-.156c.181-.104.323-.246.427-.427.104-.185.156-.395.156-.629s-.052-.443-.156-.624a1.152 1.152 0 00-1.022-.589c-.22 0-.418.052-.595.156a1.155 1.155 0 00-.416.433 1.23 1.23 0 00-.156.624zm5.126-.45c0-.231-.052-.416-.156-.554-.1-.139-.269-.208-.508-.208a.788.788 0 00-.439.127.95.95 0 00-.421.797v1.617h-.179v-2.656h.179v.658a1.02 1.02 0 01.335-.52.863.863 0 01.56-.196c.277 0 .481.085.612.254.131.166.196.387.196.664v1.796h-.179v-1.779z"/></symbol><symbol id="icon-Preci-logo-rus" viewBox="0 0 57 32"><path fill="var(--color1, #000)" d="M1.096 21.099H.579V9.75h.517v2.303a3.868 3.868 0 011.118-1.769c.534-.467 1.174-.701 1.919-.701.679 0 1.291.161 1.836.484.556.323.996.784 1.318 1.385s.484 1.313.484 2.136c0 .823-.161 1.535-.484 2.136s-.762 1.063-1.318 1.385a3.532 3.532 0 01-1.836.484c-.745 0-1.385-.234-1.919-.701a3.86 3.86 0 01-1.118-1.769v5.975zm6.142-7.51c0-.723-.145-1.346-.434-1.869a2.93 2.93 0 00-1.152-1.202 3.036 3.036 0 00-1.602-.434c-.545 0-1.04.161-1.485.484s-.801.751-1.068 1.285a3.76 3.76 0 00-.401 1.736c0 .623.133 1.202.401 1.736s.623.962 1.068 1.285c.445.323.94.484 1.485.484.59 0 1.124-.139 1.602-.417.49-.289.873-.695 1.152-1.218.289-.523.434-1.146.434-1.869zM10.478 9.751v1.385c.167-.478.406-.857.718-1.135s.69-.417 1.135-.417c.445 0 .834.139 1.168.417l-.3.417c-.312-.223-.634-.334-.968-.334-.412 0-.745.122-1.001.367s-.445.567-.567.968a4.574 4.574 0 00-.184 1.335v4.673h-.517V9.75h.517zM17.761 17.594a3.169 3.169 0 01-1.786-.517 3.807 3.807 0 01-1.252-1.452c-.3-.612-.451-1.302-.451-2.069s.156-1.446.467-2.036c.312-.601.74-1.074 1.285-1.419s1.163-.517 1.852-.517c.656 0 1.241.161 1.752.484.523.323.935.768 1.235 1.335.3.556.451 1.185.451 1.886v.217a.69.69 0 01-.033.217h-6.475c.022.656.167 1.241.434 1.752.267.501.617.896 1.051 1.185.445.289.951.434 1.519.434.634 0 1.185-.134 1.652-.401.467-.278.901-.723 1.302-1.335l.417.284c-.445.679-.946 1.174-1.502 1.485-.545.312-1.185.467-1.919.467zm.117-7.543c-.567 0-1.079.139-1.535.417-.445.267-.801.64-1.068 1.118s-.417 1.035-.451 1.669h5.941v-.133c0-.579-.128-1.096-.384-1.552a2.904 2.904 0 00-1.035-1.101 2.663 2.663 0 00-1.469-.417zM23.272 13.589c0 .679.15 1.285.451 1.819.3.523.707.935 1.218 1.235.523.3 1.102.451 1.736.451.623 0 1.168-.128 1.635-.384s.79-.506.968-.751v.668c-.211.245-.551.467-1.018.668s-.996.3-1.585.3a3.949 3.949 0 01-2.003-.517 3.811 3.811 0 01-1.402-1.419c-.345-.612-.517-1.302-.517-2.069 0-.779.172-1.469.517-2.069s.812-1.074 1.402-1.419a3.949 3.949 0 012.003-.517c.59 0 1.118.106 1.585.317.467.2.807.417 1.018.651v.668c-.178-.256-.501-.506-.968-.751-.467-.256-1.012-.384-1.635-.384-.634 0-1.213.15-1.736.451-.512.3-.918.718-1.218 1.252-.3.523-.451 1.124-.451 1.802zM31.878 9.751h.517v7.677h-.517V9.751z"/><path fill="var(--color2, #efd1d1)" d="M32.597 8.659c.589.014 2.045-.534 3.162-2.84.206-.654.543-2.168.245-2.995-.372-1.033-2.697-1.678-4.041-1.52s-2.313 1.43-2.722 2.061c-.409.631-.402 2.547.374 4.032.621 1.188 2.247 1.336 2.982 1.261z"/><path fill="var(--color1, #000)" d="M32.828 6.784c-.279.29-.731.308-1.009.041s-.276-.719.003-1.01c.28-.29.731-.309 1.009-.041s.276.719-.003 1.01zM2.321 29.862h.463v.695h-.162v-.521H.434v-2.663h.179v2.489h1.528v-2.489h.179v2.489zm3.747-.446a2.21 2.21 0 01-.243.313 1.086 1.086 0 01-.365.26c-.147.07-.34.104-.579.104a1.12 1.12 0 01-.619-.179 1.321 1.321 0 01-.434-.504 1.608 1.608 0 01-.156-.718 1.661 1.661 0 01.047-.393c.069-.289.212-.525.428-.706.216-.185.475-.278.776-.278.216 0 .415.054.596.162s.326.259.434.452a1.352 1.352 0 01.15.821H3.857c.008.228.058.43.151.608s.214.317.365.417c.154.096.33.145.527.145s.361-.029.492-.087a.956.956 0 00.318-.232c.085-.093.156-.187.214-.284l.145.098zm-1.146-1.939c-.181 0-.351.044-.509.133s-.289.216-.394.382c-.1.166-.154.365-.162.596h2.061c.008-.216-.033-.407-.122-.573s-.21-.297-.365-.394a.928.928 0 00-.509-.145zm2.363-.104h.179v1.164h1.76v-1.164h.179v2.663h-.179v-1.331h-1.76v1.331h-.179v-2.663zm3.428 0h.179v1.164h1.76v-1.164h.179v2.663h-.179v-1.331h-1.76v1.331h-.179v-2.663zm3.238 1.331c0-.27.06-.509.179-.718a1.319 1.319 0 011.175-.671c.259 0 .49.06.695.179s.367.284.486.492c.12.209.179.448.179.718 0 .266-.06.506-.179.718-.12.209-.282.372-.486.492s-.436.179-.695.179c-.255 0-.484-.06-.689-.179s-.367-.284-.486-.492a1.43 1.43 0 01-.179-.718zm.185 0c0 .235.052.446.156.631.104.181.243.324.417.428.178.104.376.156.596.156s.419-.052.596-.156c.181-.104.324-.247.428-.428.104-.185.156-.396.156-.631s-.052-.444-.156-.625a1.158 1.158 0 00-1.024-.59c-.22 0-.419.052-.596.156a1.153 1.153 0 00-.417.434c-.104.182-.156.39-.156.625zm3.569 0c0 .235.052.446.156.631a1.15 1.15 0 001.025.584c.216 0 .405-.045.567-.133s.274-.175.336-.26v.232c-.073.085-.191.162-.353.232s-.345.104-.55.104a1.319 1.319 0 01-1.181-.671 1.43 1.43 0 01-.179-.718c0-.27.06-.509.179-.718a1.319 1.319 0 011.181-.671c.205 0 .388.037.55.11.162.07.28.145.353.226v.232c-.062-.089-.174-.176-.336-.261a1.159 1.159 0 00-.567-.133c-.22 0-.421.052-.602.156a1.153 1.153 0 00-.423.434c-.104.182-.156.39-.156.625zm2.843-1.331h1.563v.174h-.689v2.489h-.185v-2.489h-.689v-.174zm2.471 0h.179v1.007h.637c.274 0 .504.068.689.203.189.131.284.34.284.625s-.095.496-.284.631a1.163 1.163 0 01-.689.197h-.816v-2.663zm.816 1.17h-.637v1.331h.637c.228 0 .417-.052.567-.156s.226-.274.226-.509c0-.228-.075-.396-.226-.504s-.34-.162-.567-.162zm4.316-1.17h.816c.166 0 .316.025.451.075a.639.639 0 01.463.649.514.514 0 01-.162.405.901.901 0 01-.411.191c.205.023.371.079.498.168s.191.239.191.451a.723.723 0 01-.203.515c-.131.139-.349.209-.654.209h-.99v-2.663zm.817.162h-.637v1.088h.637c.093 0 .195-.014.307-.041a.67.67 0 00.295-.162.407.407 0 00.127-.318c0-.193-.069-.336-.208-.428s-.313-.139-.521-.139zm.057 1.245h-.695v1.094h.776c.255 0 .436-.058.544-.174s.162-.251.162-.405c0-.151-.042-.263-.128-.336a.615.615 0 00-.307-.145 1.869 1.869 0 00-.353-.035zm3.791-1.407h1.563v.174h-.689v2.489h-.185v-2.489h-.689v-.174zm2.196 1.331c0-.27.06-.509.179-.718a1.319 1.319 0 011.175-.671c.259 0 .49.06.695.179s.367.284.486.492c.12.209.179.448.179.718 0 .266-.06.506-.179.718-.12.209-.282.372-.486.492s-.436.179-.695.179c-.255 0-.484-.06-.689-.179s-.367-.284-.486-.492a1.43 1.43 0 01-.179-.718zm.185 0c0 .235.052.446.156.631.104.181.243.324.417.428.177.104.376.156.596.156s.419-.052.596-.156c.181-.104.324-.247.428-.428.104-.185.156-.396.156-.631s-.052-.444-.156-.625a1.158 1.158 0 00-1.024-.59c-.22 0-.419.052-.596.156a1.153 1.153 0 00-.417.434c-.104.182-.156.39-.156.625zm3.644-1.331v.764c0 .34.063.577.191.712s.351.203.671.203h.579v-1.679h.179v2.663h-.179v-.81h-.579c-.266 0-.477-.037-.631-.11a.625.625 0 01-.319-.347 1.792 1.792 0 01-.093-.631v-.764h.18zm2.93 0h.179v1.164h1.76v-1.164h.179v2.663h-.179v-1.331h-1.76v1.331h-.179v-2.663zm3.237 1.331c0-.27.06-.509.18-.718a1.326 1.326 0 011.175-.671c.258 0 .49.06.695.179s.367.284.486.492c.12.209.179.448.179.718 0 .266-.06.506-.179.718-.12.209-.282.372-.486.492s-.436.179-.695.179c-.255 0-.484-.06-.689-.179s-.367-.284-.486-.492a1.43 1.43 0 01-.18-.718zm.185 0c0 .235.052.446.156.631.104.181.243.324.417.428.178.104.376.156.596.156s.419-.052.596-.156c.181-.104.324-.247.428-.428.104-.185.156-.396.156-.631s-.052-.444-.156-.625a1.155 1.155 0 00-1.024-.59c-.22 0-.419.052-.596.156a1.153 1.153 0 00-.417.434c-.104.182-.156.39-.156.625zm3.569 0c0 .235.052.446.156.631a1.15 1.15 0 001.025.584c.216 0 .405-.045.567-.133s.274-.175.336-.26v.232c-.073.085-.191.162-.353.232s-.345.104-.55.104c-.255 0-.486-.06-.695-.179a1.326 1.326 0 01-.486-.492 1.43 1.43 0 01-.179-.718c0-.27.06-.509.179-.718a1.319 1.319 0 011.181-.671c.204 0 .388.037.55.11.162.07.28.145.353.226v.232c-.062-.089-.174-.176-.336-.261a1.159 1.159 0 00-.567-.133 1.138 1.138 0 00-1.025.59c-.104.182-.156.39-.156.625zm2.843-1.331h1.563v.174h-.689v2.489h-.185v-2.489h-.689v-.174zm2.68 0v2.339l1.765-2.541v2.865h-.179v-2.338l-1.765 2.541v-2.865h.179z"/></symbol><symbol id="icon-Preci-logo-wb" viewBox="0 0 56 32"><path fill="var(--color1, #000)" d="M.779 31.755H0v-17.08h.779v3.466c.335-1.072.896-1.959 1.683-2.662.804-.703 1.767-1.055 2.889-1.055 1.021 0 1.942.243 2.763.728.837.486 1.499 1.181 1.984 2.085s.728 1.976.728 3.215c0 1.239-.243 2.311-.728 3.215s-1.147 1.599-1.984 2.085c-.821.486-1.742.728-2.763.728-1.122 0-2.085-.352-2.889-1.055-.787-.703-1.348-1.591-1.683-2.662v8.992zm9.243-11.303c0-1.088-.218-2.026-.653-2.813-.419-.787-.996-1.39-1.733-1.809a4.573 4.573 0 00-2.411-.653c-.821 0-1.566.243-2.235.728s-1.206 1.13-1.608 1.934c-.402.787-.603 1.658-.603 2.612 0 .938.201 1.808.603 2.612s.938 1.448 1.608 1.934c.67.486 1.415.728 2.235.728.888 0 1.691-.209 2.411-.628a4.57 4.57 0 001.733-1.834c.435-.787.653-1.725.653-2.813zM14.899 14.675v2.085c.251-.72.611-1.289 1.08-1.708s1.038-.628 1.708-.628c.67 0 1.256.209 1.758.628l-.452.628c-.469-.335-.954-.502-1.457-.502-.62 0-1.122.184-1.507.553s-.67.854-.854 1.457a6.867 6.867 0 00-.276 2.009v7.033h-.779V14.676h.779zM25.86 26.48c-1.005 0-1.901-.26-2.688-.779-.787-.536-1.415-1.264-1.884-2.185-.452-.921-.678-1.959-.678-3.115s.234-2.177.703-3.064c.469-.904 1.114-1.616 1.934-2.135s1.75-.779 2.788-.779c.988 0 1.867.243 2.637.728a5.13 5.13 0 011.859 2.009c.452.837.678 1.783.678 2.838v.327c0 .117-.017.226-.05.326h-9.746c.034.988.251 1.867.653 2.637.402.754.929 1.348 1.582 1.783.67.435 1.432.653 2.286.653.954 0 1.783-.201 2.487-.603.703-.419 1.356-1.088 1.959-2.009l.628.427c-.67 1.021-1.423 1.767-2.261 2.235-.821.469-1.783.703-2.889.703zm.176-11.353c-.854 0-1.624.209-2.311.628-.67.402-1.206.963-1.608 1.683s-.628 1.557-.678 2.512h8.942v-.201c0-.871-.193-1.649-.578-2.336a4.37 4.37 0 00-1.557-1.658c-.653-.419-1.39-.628-2.21-.628zM34.154 20.452c0 1.021.226 1.934.678 2.738a5.003 5.003 0 001.834 1.859 5.152 5.152 0 002.612.678c.938 0 1.758-.193 2.462-.578s1.189-.762 1.457-1.13v1.005c-.318.368-.829.703-1.532 1.005s-1.499.452-2.386.452c-1.105 0-2.11-.26-3.014-.779a5.734 5.734 0 01-2.11-2.135c-.519-.921-.779-1.959-.779-3.115 0-1.172.26-2.21.779-3.115s1.222-1.616 2.11-2.135c.904-.519 1.909-.779 3.014-.779.888 0 1.683.159 2.386.477.703.301 1.214.628 1.532.98v1.005c-.268-.385-.754-.762-1.457-1.13-.703-.385-1.524-.578-2.462-.578-.954 0-1.825.226-2.612.678a4.963 4.963 0 00-1.834 1.884c-.452.787-.678 1.691-.678 2.713zM47.107 14.675h.779v11.554h-.779V14.675z"/><path fill="var(--color3, #dcdcdc)" d="M48.188 13.033c.885.021 3.077-.804 4.758-4.275.31-.984.818-3.263.369-4.507-.56-1.554-4.06-2.526-6.082-2.287s-3.48 2.152-4.097 3.103c-.616.95-.606 3.834.563 6.068.935 1.788 3.382 2.011 4.489 1.899z"/><path fill="var(--color1, #000)" d="M48.536 10.211c-.421.437-1.1.464-1.518.062s-.416-1.083.005-1.519c.421-.437 1.1-.464 1.518-.062s.416 1.083-.005 1.519z"/></symbol></defs></svg>